<svg xmlns="http://www.w3.org/2000/svg" viewBox="0 0 287.56 191" role="img"><title>Meta</title><defs><linearGradient id="meta-grad-a" x1="62.6%" x2="40.46%" y1="13.34%" y2="86.7%"><stop offset="0%" stop-color="#0064E1"/><stop offset="40%" stop-color="#0064E1"/><stop offset="83%" stop-color="#0073EE"/><stop offset="100%" stop-color="#0082FB"/></linearGradient><linearGradient id="meta-grad-b" x1="41.77%" x2="60.27%" y1="86.83%" y2="21.85%"><stop offset="0%" stop-color="#0082FB"/><stop offset="100%" stop-color="#0064E0"/></linearGradient></defs><path fill="#0081FB" d="M31.06 126c0 11 2.41 19.41 5.56 24.51A19 19 0 0053.19 160c8.1 0 15.51-2 29.79-21.76 11.44-15.83 24.92-38 34-51.9l15.36-23.6c10.67-16.39 23-34.61 37.18-47C181.17 5.6 193.5 0 205.91 0c20.83 0 40.69 12.08 55.85 34.74C278.66 59.62 287 91 287 123.41c0 19.27-3.79 33.42-10.27 44.61C270.69 178.83 258.62 191 238.42 191v-30c17.32 0 21.65-15.92 21.65-34.13 0-26-6.06-54.79-19.42-75.31-9.43-14.55-21.65-23.45-35.1-23.45-14.55 0-26.27 11-39.45 30.61-7 10.42-14.19 23.12-22.27 37.45l-9.07 16.07c-18.23 32.31-22.86 39.62-31.91 51.69C81.61 184.43 67.78 191 53.19 191c-21 0-34.31-9.1-42.55-22.83C3.88 156.93 0 142.39 0 125.79z"/><path fill="url(#meta-grad-a)" d="M24.49 36.84C38.55 15.13 58.84 0 82.11 0c13.49 0 26.91 4 40.91 15.47 15.31 12.45 31.6 32.93 51.94 66.71l7.3 12.16c17.62 29.31 27.65 44.39 33.49 51.55a32.42 32.42 0 0023.21 12.13c10.5 0 21.65-15.92 21.65-34.13l27.91-0.4c0 19.27-3.79 33.42-10.27 44.61C270.69 178.83 258.62 191 238.42 191c-12.46 0-23.5-2.7-35.71-14.21-9.39-8.84-20.36-24.55-28.81-38.69l-25.13-42c-12.6-21.1-24.16-36.81-30.85-43.92-7.2-7.64-16.44-16.87-31.21-16.87-12 0-22.13 8.36-30.66 21.18z"/><path fill="url(#meta-grad-b)" d="M82.11 31c-12 0-22.13 8.36-30.66 21.18C39.4 70.36 31.06 97.27 31.06 126.06c0 11 2.41 19.41 5.56 24.51L10.64 167.78C3.88 156.93 0 142.39 0 125.79c0-33.45 9.16-68.27 26.62-95.16C42 9.04 62 0 82.16 0z"/></svg>
